<svg height="511pt" viewBox="0 0 511 511.99908" width="511pt" xmlns="http://www.w3.org/2000/svg"><path d="m342.019531 347.160156c8.839844 12.402344 22.988281 25.363282 45.066407 37.765625 81.128906-45.566406 55.160156-98.707031 52.390624-103.859375 1.964844 3.445313 17.425782 28.171875 58.773438 32.976563 17.957031-63.234375-28.21875-85.546875-28.21875-85.546875s8.550781.855468 28.21875-14.539063c-21.257812-38.382812-43.167969-50.320312-61.859375-50.761719-12.976563-.308593-24.402344 4.921876-32.976563 10.691407" fill="#a0e557"/><path d="m301.523438 173.890625c0 24.851563-20.144532 45-45 45-24.851563 0-45-20.148437-45-45s20.148437-45 45-45c24.855468 0 45 20.148437 45 45zm0 0" fill="#ef3c3c"/><path d="m391.523438 173.890625c0 24.851563-20.144532 45-45 45-24.851563 0-45-20.148437-45-45s20.148437-45 45-45c24.855468 0 45 20.148437 45 45zm0 0" fill="#ef3c3c"/><path d="m166.398438 223.023438c0 24.855468-20.148438 45-45 45-24.851563 0-45-20.144532-45-45 0-24.851563 20.148437-45 45-45 24.851562 0 45 20.148437 45 45zm0 0" fill="#ff5d5d"/><path d="m256.398438 223.023438c0 24.855468-20.148438 45-45 45-24.851563 0-45-20.144532-45-45 0-24.851563 20.148437-45 45-45 24.851562 0 45 20.148437 45 45zm0 0" fill="#ff5d5d"/><path d="m346.398438 223.023438c0 24.855468-20.148438 45-45 45-24.855469 0-45-20.144532-45-45 0-24.851563 20.144531-45 45-45 24.851562 0 45 20.148437 45 45zm0 0" fill="#ff5d5d"/><path d="m436.398438 223.023438c0 24.855468-20.148438 45-45 45-24.855469 0-45-20.144532-45-45 0-24.851563 20.144531-45 45-45 24.851562 0 45 20.148437 45 45zm0 0" fill="#ff5d5d"/><g fill="#fe8f8d"><path d="m211.398438 301.023438c0 24.855468-20.148438 45-45 45-24.851563 0-45-20.144532-45-45 0-24.851563 20.148437-45 45-45 24.851562 0 45 20.148437 45 45zm0 0"/><path d="m301.398438 301.023438c0 24.855468-20.148438 45-45 45-24.851563 0-45-20.144532-45-45 0-24.851563 20.148437-45 45-45 24.851562 0 45 20.148437 45 45zm0 0"/><path d="m391.398438 301.023438c0 24.855468-20.148438 45-45 45-24.855469 0-45-20.144532-45-45 0-24.851563 20.144531-45 45-45 24.851562 0 45 20.148437 45 45zm0 0"/><path d="m256.398438 379.046875c0 24.851563-20.148438 45-45 45-24.851563 0-45-20.148437-45-45s20.148437-45 45-45c24.851562 0 45 20.148437 45 45zm0 0"/><path d="m346.398438 379.046875c0 24.851563-20.148438 45-45 45-24.855469 0-45-20.148437-45-45s20.144531-45 45-45c24.851562 0 45 20.148437 45 45zm0 0"/><path d="m301.398438 457c0 24.851562-20.148438 45-45 45-24.851563 0-45-20.148438-45-45s20.148437-45 45-45c24.851562 0 45 20.148438 45 45zm0 0"/></g><path d="m208.246094 163.785156s5.445312 6.652344 30.234375 9.675782c30.488281-106.164063-60.464844-96.746094-60.464844-96.746094s9.417969-90.953125-96.746094-60.464844c3.023438 24.792969 9.675781 30.234375 9.675781 30.234375s-48.425781-16.875-80.445312 40.539063c32.636719 25.835937 61.050781 19.285156 64.878906 18.238281-5.601562 1.683593-61.539062 20.898437-36.394531 110.484375 89.585937 25.144531 108.800781-30.792969 110.484375-36.394532-1.046875 3.828126-7.597656 32.242188 18.238281 64.878907 57.414063-32.015625 40.539063-80.445313 40.539063-80.445313zm0 0" fill="#a0e557"/><path d="m499.105469 241.878906c-2.8125-4.082031-5.796875-7.539062-8.679688-10.417968 4.058594-2.363282 8.707031-5.496094 13.988281-9.628907 3.867188-3.027343 4.964844-8.417969 2.582032-12.71875-20.195313-36.476562-43.871094-55.289062-70.367188-55.917969-12.152344-.285156-24.304687 3.3125-36.160156 10.691407-4.71875-25.566407-27.164062-44.996094-54.074219-44.996094-18.585937 0-35.035156 9.277344-44.996093 23.4375-8.0625-11.460937-20.375-19.710937-34.632813-22.445313 2.664063-33.539062 20.0625-64.40625 46.902344-84.183593-3.234375 12.703125-2.945313 26.292969 1.238281 39.328125 8.019531 24.992187 31.238281 40.957031 56.179688 40.953125 5.953124 0 12.011718-.910157 17.972656-2.824219 25.816406-8.28125 40.078125-36.023438 31.796875-61.835938-3.371094-10.515624-10.636719-19.085937-20.457031-24.132812-9.816407-5.046875-21.015626-5.972656-31.527344-2.597656-8.917969 2.859375-16.191406 9.023437-20.472656 17.355468-4.285157 8.328126-5.066407 17.828126-2.203126 26.746094 4.085938 12.742188 15.921876 20.878906 28.636719 20.875 3.03125 0 6.121094-.460937 9.160157-1.4375 5.257812-1.6875 8.152343-7.316406 6.464843-12.578125-1.6875-5.257812-7.3125-8.152343-12.574219-6.464843-2.558593.820312-5.28125.59375-7.667968-.632813-2.390625-1.226563-4.15625-3.3125-4.980469-5.871094-1.226563-3.832031-.890625-7.914062.949219-11.492187s4.964844-6.226563 8.796875-7.457032c5.425781-1.742187 11.203125-1.265624 16.273437 1.339844 5.066406 2.605469 8.816406 7.03125 10.558594 12.457032 4.914062 15.3125-3.546875 31.769531-18.859375 36.683593-20.460937 6.5625-42.4375-4.738281-49.003906-25.195312-5.882813-18.335938-1.078125-38.207031 12.539062-51.851563-.003906-.003906-.007812-.007812-.011719-.011718 2.910157-2.925782 3.820313-7.46875 1.929688-11.394532-2.398438-4.976562-8.375-7.0625-13.351562-4.667968l-11.929688 5.75c-16.175781 7.796874-30.527344 18.664062-42.355469 31.941406l-5.804687-1.582032c-30.742188-8.371093-63.617188-1.148437-87.976563 18.835938-2.144531-13.195312-7.769531-29.675781-21.863281-41.476562-19.289062-16.15625-48.433594-18.789063-86.613281-7.820313-4.722657 1.355469-7.761719 5.941406-7.167969 10.820313.816406 6.65625 1.886719 12.15625 3.085938 16.699218-.007813 0-.015626 0-.023438 0-4.070312 0-8.613281.332032-13.480469 1.226563-16.8125 3.089843-40.722656 13.707031-59.160156 46.765625-2.386719 4.285156-1.316406 9.667968 2.527344 12.710937 14.105469 11.167969 27.574219 16.910157 39.09375 19.664063-2.019531 2.167968-3.996094 4.566406-5.882813 7.214844-16.796875 23.59375-19.539062 56.128906-8.148437 96.707031.941406 3.359375 3.566406 5.984375 6.925781 6.925781 10.835938 3.042969 21.09375 5.066406 30.765625 6.09375 3.832031 24.769531 24.253906 44.117188 49.511719 46.332031-3.304688 7.058594-5.160156 14.929688-5.160156 23.222657 0 28.742187 22.164062 52.386718 50.292968 54.785156-3.308594 7.066406-5.167968 14.9375-5.167968 23.238281 0 28.6875 22.085937 52.304687 50.140624 54.773437-3.289062 7.046876-5.140624 14.898438-5.140624 23.179688 0 30.328125 24.675781 55 55 55 30.328124 0 55-24.671875 55-55 0-8.28125-1.847657-16.132812-5.140626-23.179688 28.058594-2.472656 50.140626-26.085937 50.140626-54.773437 0-.882813-.023438-1.757813-.066407-2.632813 7.511719 6.0625 16.097657 11.820313 25.730469 17.230469 1.523438.851563 3.210938 1.28125 4.898438 1.28125s3.378906-.429687 4.898437-1.28125c36.746094-20.640625 57.8125-45.585937 62.621094-74.144531.539062-3.207031.835937-6.300781.941406-9.261719 10.09375 6.199219 23.675781 11.660157 41.546875 13.738281 4.890625.574219 9.4375-2.484374 10.773438-7.199218 10.339843-36.414063.945312-60.828125-8.761719-74.898438zm-279.761719-48.070312c.292969-1.609375.507812-3.167969.691406-4.703125 15.132813 3.859375 26.363282 17.601562 26.363282 33.921875 0 19.296875-15.703126 35-35 35-10.527344 0-20.324219-4.699219-26.902344-12.601563 23.796875-17.074219 32.167968-37.019531 34.847656-51.617187zm82.054688-5.785156c19.296874 0 35 15.703124 35 35 0 19.300781-15.703126 35-35 35-19.300782 0-35-15.699219-35-35 0-19.296876 15.699218-35 35-35zm-45 78c19.296874 0 35 15.703124 35 35 0 19.300781-15.703126 35-35 35-19.300782 0-35-15.699219-35-35 0-19.296876 15.699218-35 35-35zm90 70c-19.300782 0-35-15.699219-35-35 0-19.296876 15.699218-35 35-35 19.296874 0 35 15.703124 35 35 0 19.300781-15.703126 35-35 35zm10-113c0-19.296876 15.699218-35 35-35 19.296874 0 35 15.703124 35 35 0 19.300781-15.703126 35-35 35-19.300782 0-35-15.699219-35-35zm-10-84.132813c17.644531 0 32.269531 13.125 34.652343 30.125-14.265625 2.730469-26.589843 10.984375-34.652343 22.445313-8.066407-11.460938-20.386719-19.714844-34.652344-22.445313 2.378906-17 17.007812-30.125 34.652344-30.125zm-55.347657 30.125c-14.265625 2.726563-26.589843 10.980469-34.652343 22.445313-2.976563-4.226563-6.523438-8.019532-10.539063-11.257813 1.011719-1.109375 1.792969-2.457031 2.230469-3.984375 3.929687-13.671875 6.101562-26.175781 6.542968-37.492188.574219.101563 1.164063.164063 1.765626.164063 17.640624 0 32.269531 13.125 34.652343 30.125zm-23.3125-113.117187c-.1875.292968-.382812.578124-.570312.871093-9.019531 14.359375-15.199219 30.179688-18.34375 46.667969-2.226563-5.0625-5.074219-9.679688-8.554688-13.832031-10.484375-12.523438-24.664062-18.359375-36.953125-21.011719 18.414063-13.363281 42.03125-18.164062 64.421875-12.695312zm-189.484375 58.941406c5.242188-1.574219 8.246094-7.070313 6.734375-12.332032-1.507812-5.261718-6.96875-8.332031-12.246093-6.890624-2.460938.671874-23.144532 5.574218-48.890626-11.273438 26.933594-40.089844 62.289063-28.921875 63.804688-28.417969 4.582031 1.597657 9.644531-.324219 12.015625-4.554687 2.234375-3.988282 1.464844-8.949219-1.777344-12.078125-.445312-.59375-3.1875-4.589844-5.355469-15.667969 27.019532-6.433594 47.0625-4.390625 59.664063 6.101562 14.945313 12.4375 16.132813 34.359376 16.007813 42.652344l-10.355469 10.355469-49.679688-3.136719c-5.496093-.351562-10.261719 3.835938-10.609375 9.347656-.347656 5.511719 3.839844 10.261719 9.351563 10.609376l32.089843 2.027343-30.847656 30.847657c-3.90625 3.902343-3.90625 10.234374 0 14.140624 1.953125 1.953126 4.511719 2.929688 7.070313 2.929688 2.558593 0 5.117187-.976562 7.070312-2.929688l33.90625-33.902343 1.988281 31.511719c.335938 5.296874 4.734376 9.371093 9.972657 9.371093.210937 0 .425781-.007812.640625-.019531 5.511718-.347656 9.695312-5.101562 9.347656-10.609375l-3.097656-49.105469 7.296875-7.296875c8.316406-.125 30.222656 1.070313 42.652343 16.007813 10.488282 12.605468 12.53125 32.648437 6.101563 59.664062-11.074219-2.164062-15.070313-4.90625-15.667969-5.355468-3.128906-3.246094-8.101562-4.042969-12.089844-1.808594-4.230468 2.371094-6.164062 7.402344-4.570312 11.984375.527344 1.574219 11.695312 36.929687-28.390625 63.867187-16.851563-25.746094-11.949219-46.429687-11.277344-48.890625 1.445313-5.277343-1.625-10.738281-6.886719-12.246093-.921874-.265626-1.847656-.390626-2.761718-.390626-4.304688 0-8.273438 2.800782-9.574219 7.125-1.585937 5.273438-17.402344 49.964844-92.730469 31.097657-18.871094-75.332031 25.820313-91.148438 31.09375-92.734375zm9.34375 117.257812c17.59375-.929687 32.773438-5.890625 45.390625-14.871094 2.648438-1.886718 5.046875-3.863281 7.214844-5.882812 2.039063 8.527344 5.722656 18.117188 12.019531 28.246094-6.066406 11.292968-17.824218 18.433594-30.824218 18.433594-16.160157 0-29.792969-11.011719-33.800782-25.925782zm43.800782 68.925782c0-19.296876 15.699218-35 35-35 19.296874 0 35 15.703124 35 35 0 19.300781-15.703126 35-35 35-19.300782 0-35-15.699219-35-35zm45.125 78.023437c0-19.300781 15.703124-35 35-35 19.300781 0 35 15.699219 35 35 0 19.296875-15.699219 35-35 35-19.296876 0-35-15.703125-35-35zm80 112.953125c-19.296876 0-35-15.703125-35-35 0-19.300781 15.703124-35 35-35 19.300781 0 35 15.699219 35 35 0 19.296875-15.699219 35-35 35zm45-77.953125c-19.296876 0-35-15.703125-35-35 0-19.300781 15.703124-35 35-35 19.300781 0 35 15.699219 35 35 0 19.296875-15.699219 35-35 35zm189.179687-111.339844c-30.121094-6.289062-41.277344-24.378906-42.542969-26.59375-2.710937-4.757812-8.746094-6.445312-13.53125-3.792969-4.789062 2.652344-6.554687 8.664063-3.960937 13.484376 2.609375 4.851562 23.03125 47.632812-43.582031 87.558593-10.191407-6.109375-18.847657-12.585937-25.902344-19.375 23.164062-6.476562 40.214844-27.757812 40.214844-52.964843 0-8.296876-1.859376-16.164063-5.164063-23.222657 28.070313-2.460937 50.164063-26.082031 50.164063-54.777343 0-19.765626-10.488282-37.125-26.183594-46.820313 5.382812-2.125 10.71875-3.140625 15.941406-3.015625 17.210938.410156 33.640625 13.1875 48.914062 38.015625-9.363281 6.300781-14.125 7.1875-14.867187 7.292969-4.496094-.082032-8.585937 2.867187-9.824219 7.269531-1.316406 4.667969.875 9.59375 5.242188 11.703125 1.484375.746094 34.382812 17.847656 25.082031 65.238281zm0 0"/><path d="m94.46875 174.910156c1.859375-1.859375 2.929688-4.441406 2.929688-7.070312 0-2.640625-1.070313-5.210938-2.929688-7.078125-1.859375-1.859375-4.441406-2.921875-7.070312-2.921875-2.628907 0-5.210938 1.0625-7.070313 2.921875-1.859375 1.867187-2.929687 4.4375-2.929687 7.078125 0 2.628906 1.070312 5.210937 2.929687 7.070312s4.441406 2.929688 7.070313 2.929688c2.628906 0 5.210937-1.070313 7.070312-2.929688zm0 0"/></svg>