<svg height="512" viewBox="0 0 58 58" width="512" xmlns="http://www.w3.org/2000/svg"><g id="Page-1" fill="none" fill-rule="evenodd"><g id="027---Wine-Barrel" fill-rule="nonzero"><path id="Shape" d="m24.85 8c.1231349-.00989323.2468651-.00989323.37 0h22.56c.5814244-.00505925 1.1362674.24316001 1.52.68 1.1537001 1.3543672 2.1970378 2.7989887 3.12 4.32 1.3701044 2.2062826 2.4998852 4.5530082 3.37 7 .5798918 1.6312329 1.0410939 3.3022551 1.38 5 1.1101369 5.2755644 1.1101369 10.7244356 0 16-.3389061 1.6977449-.8001082 3.3687671-1.38 5-.8701148 2.4469918-1.9998956 4.7937174-3.37 7-.9229622 1.5210113-1.9662999 2.9656328-3.12 4.32-.3837326.43684-.9385756.6850592-1.52.68h-22.56c-.5779417.0021548-1.1285599-.2458058-1.51-.68-1.1568821-1.3542151-2.2035552-2.7988246-3.13-4.32-1.3770505-2.1966593-2.4945253-4.5457053-3.33-7-.16-.44-.3-.89-.43-1.34l-.56-3.66c-.4154611-1.9767024-.6762505-3.9827751-.78-6-.1598459-.009932-.3201541-.009932-.48 0-.3699771-.0008208-.7389024.0394256-1.1.12.7143538-.8826665 1.1028156-1.9844853 1.1-3.12.0008175-1.1334859-.3835221-2.2336141-1.09-3.12.3577266.080492.7233302.1207419 1.09.12h.64c.1352675-1.3434254.3422293-2.6786626.62-4l1.12-5.4c.8280503-2.307905 1.9008313-4.520516 3.2-6.6z" fill="#cb8252"/><path id="Shape" d="m15.25 10.58c.0550995.1919202.1253193.3791728.21.56" fill="#cb8252"/><path id="Shape" d="m27.55 1.39c-.31.36-.6.72-.89 1.09-.4680037.55081864-.8583025 1.16318402-1.16 1.82-.0035715.02654708-.0035715.05345292 0 .08-.089504.21674598-.1597746.44094282-.21.67-.0771372 1.00669228-.2106802 2.0082654-.4 3-.0311544.1097778-.0712898.21680564-.12.32v.06c-.6766966 1.25562138-1.7243556 2.2718506-3 2.91l-.64.34c-1.35.67-3.29 1.46-4.7.54-.0529925-.0278095-.1004423-.0650915-.14-.11-.4722773-.3867821-.8057568-.9168388-.95-1.51-.3213962-1.67147049-.0227719-3.40278026.84-4.87 1.1488278-2.11102266 3.0580789-3.70564059 5.34-4.46l.22-.06c1.6364595-.39829225 3.3158193-.59309799 5-.58h.56c.19 0 .56 0 .65.18s-.28.43-.4.58z" fill="#71c285"/><path id="Shape" d="m11.29 11.17c-.0095025.1446236-.0433092.2866117-.1.42-.198095.4576283-.5525733.8298305-1 1.05-1.16101065.4919631-2.46048732.5487708-3.66.16-1.70916513-.5087732-3.16293354-1.6446414-4.07-3.18l-.09-.15c-.54671568-1.12507129-.94987446-2.31438969-1.2-3.54 0-.13-.07-.27-.11-.4s-.11-.4 0-.5.37.06.5.13c.31.16.62.32.94.47.47159917.25535088.97644168.44382542 1.5.56h.06c.17300662.01505054.34699338.01505054.52 0 .81524257-.1412127 1.64402216-.18818807 2.47-.14 1.19115261.37111342 2.22529412 1.12737337 2.94 2.15.8096623.7786983 1.2772153 1.8468771 1.3 2.97z" fill="#71c285"/><path id="Shape" d="m15 20c-.5522847 0-1-.4477153-1-1 0-.32-.11-8-7-8-.55228475 0-1-.4477153-1-1 0-.55228475.44771525-1 1-1 3.2601099-.14034452 6.289664 1.6773879 7.7 4.62.85-3.51 2.74-7.75 6.91-9.54.5023593-.19035809 1.065361.05021333 1.2750326.54482315.2096715.49460982-.0089144 1.06650645-.4950326 1.29517685-6.3 2.7-6.39 12.98-6.39 13.08 0 .5522847-.4477153 1-1 1z" fill="#4c8056"/><path id="Shape" d="m52.42 53c-.9229622 1.5210113-1.9662999 2.9656328-3.12 4.32-.3837326.43684-.9385756.6850592-1.52.68h-22.56c-.5779417.0021548-1.1285599-.2458058-1.51-.68-1.1568821-1.3542151-2.2035552-2.7988246-3.13-4.32z" fill="#bdc3c7"/><path id="Shape" d="m57.17 41c-.3389061 1.6977449-.8001082 3.3687671-1.38 5h-38.54c-.16-.44-.3-.89-.43-1.34 1.5815141-.617898 2.7413746-1.9961738 3.08-3.66z" fill="#95a5a5"/><path id="Shape" d="m57.17 25h-27.27c.0689019-.328813.102426-.6640542.1-1 0-1.5737865-.7409708-3.0557281-2-4h27.79c.5798918 1.6312329 1.0410939 3.3022551 1.38 5z" fill="#95a5a5"/><path id="Shape" d="m49.46 46c-.5790688 2.3957607-1.36192 4.7376231-2.34 7h-6.81c.42-2.21.75-4.57 1-7z" fill="#a56a43"/><path id="Shape" d="m32.69 53h-6.81c-.9747595-2.2626594-1.7542653-4.6045224-2.33-7h8.13c.26 2.43.59 4.79 1.01 7z" fill="#a56a43"/><path id="Shape" d="m50.43 41h-8.68c.3399938-5.3279148.3399938-10.6720852 0-16h8.68c.7599367 5.3062628.7599367 10.6937372 0 16z" fill="#a56a43"/><path id="Shape" d="m10 24c.0028156 1.1355147-.38564617 2.2373335-1.1 3.12-1.10595283.2520741-2.09332643.8727089-2.8 1.76-.36098773.0812363-.7299875.1214908-1.1.12-2.76142375 0-5-2.2385763-5-5s2.23857625-5 5-5 5 2.2385763 5 5z" fill="#955ba5"/><path id="Shape" d="m20 24c.0028156 1.1355147-.3856462 2.2373335-1.1 3.12-1.1059528.2520741-2.0933264.8727089-2.8 1.76-.7178217.1603415-1.4621783.1603415-2.18 0-.7066736-.8872911-1.6940472-1.5079259-2.8-1.76-.7215459-.8799579-1.1171661-1.9820429-1.12-3.12-.00097772-1.7622847.9258367-3.3949486 2.4395114-4.2974104 1.5136747-.9024619 3.3906555-.9414375 4.9404886-.1025896.2175492.115658.4249515.2494659.62.4 1.2590292.9442719 2 2.4262135 2 4z" fill="#955ba5"/><path id="Shape" d="m30 24c.002426.3359458-.0310981.671187-.1 1-.4752686 2.3283313-2.5236569 4.000485-4.9 4-.3666698.0007419-.7322734-.039508-1.09-.12-.7066736-.8872911-1.6940472-1.5079259-2.8-1.76-.7179486-.8813143-1.1099889-1.9832656-1.11-3.12 0-1.5737865.7409708-3.0557281 2-4 .5631762-.4257295 1.2110615-.7258027 1.9-.88.3610976-.0805744.7300229-.1208208 1.1-.12 1.0825582-.0043858 2.1365849.3469564 3 1 1.2590292.9442719 2 2.4262135 2 4z" fill="#955ba5"/><path id="Shape" d="m15 32c.0028156 1.1355147-.3856462 2.2373335-1.1 3.12-1.1059528.2520741-2.0933264.8727089-2.8 1.76-.3609877.0812363-.7299875.1214908-1.1.12-1.92174225.0011065-3.67406094-1.0992919-4.50780699-2.8307543s-.60136069-3.7875495.59780699-5.2892457c.94898377-1.1828565 2.38351736-1.8711024 3.9-1.8711024 1.5164826 0 2.9510162.6882459 3.9 1.8711024.7136602.8837223 1.1051433 1.9841072 1.11 3.12z" fill="#894b9d"/><path id="Shape" d="m20 40c.002426.3359458-.0310981.671187-.1 1-.4165187 2.0266155-2.0382117 3.587368-4.0792874 3.9259947-2.0410758.3386266-4.0798904-.6148258-5.1285359-2.3983619-1.04864554-1.783536-.89049359-4.0287141.3978233-5.6476328.9489838-1.1828565 2.3835174-1.8711024 3.9-1.8711024s2.9510162.6882459 3.9 1.8711024c.7136602.8837223 1.1051433 1.9841072 1.11 3.12z" fill="#955ba5"/><path id="Shape" d="m25 32c0 2.7614237-2.2385763 5-5 5-.3666698.0007419-.7322734-.039508-1.09-.12-.7066736-.8872911-1.6940472-1.5079259-2.8-1.76-.7179486-.8813143-1.1099889-1.9832656-1.11-3.12-.0008175-1.1334859.3835221-2.2336141 1.09-3.12.9489838-1.1828565 2.3835174-1.8711024 3.9-1.8711024s2.9510162.6882459 3.9 1.8711024c.7136602.8837223 1.1051433 1.9841072 1.11 3.12z" fill="#894b9d"/><g fill="#b49aca"><circle id="Oval" cx="14" cy="41" r="1"/><circle id="Oval" cx="9" cy="33" r="1"/><circle id="Oval" cx="19" cy="33" r="1"/><circle id="Oval" cx="14" cy="25" r="1"/><circle id="Oval" cx="24" cy="25" r="1"/><circle id="Oval" cx="4" cy="25" r="1"/></g><path id="Shape" d="m52.42 13h-31.84c.35-.57.71-1.13 1.1-1.68 1.2756444-.6381494 2.3233034-1.65437862 3-2.91 0 0 0 0 0-.06.0674785-.11109847.1243941-.22827772.17-.35.1231349-.00989323.2468651-.00989323.37 0h22.56c.5814244-.00505925 1.1362674.24316001 1.52.68 1.1537001 1.3543672 2.1970378 2.7989887 3.12 4.32z" fill="#bdc3c7"/><path id="Shape" d="m32.69 13c-.42 2.22-.75 4.57-1 7h-3.69c-.8634151-.6530436-1.9174418-1.0043858-3-1-.3699771-.0008208-.7389024.0394256-1.1.12.4477108-2.1051632 1.1181515-4.1567119 2-6.12z" fill="#a56a43"/><path id="Shape" d="m49.46 20h-8.14c-.26-2.43-.59-4.79-1-7h6.81c.9746682 2.2626942 1.7541714 4.6045493 2.33 7z" fill="#a56a43"/><path id="Shape" d="m22 20c-1.2590292.9442719-2 2.4262135-2 4 0-1.5737865-.7409708-3.0557281-2-4z" fill="#95a5a5"/><path id="Shape" d="m31.25 41h-8.25c-.22-1.55-.38-3.12-.47-4.69 1.2508734-.7336181 2.1216285-1.9741672 2.3864376-3.3999147.264809-1.4257475-.1024164-2.896231-1.0064376-4.0300853.3577266.080492.7233302.1207419 1.09.12 2.3763431.000485 4.4247314-1.6716687 4.9-4h1.4c-.376721 5.3261306-.3934256 10.6716189-.05 16z" fill="#a56a43"/></g></g></svg>