<svg id="Filled_expand" height="512" viewBox="0 0 512 512" width="512" xmlns="http://www.w3.org/2000/svg" data-name="Filled expand"><g id="_16_copy_2" data-name="16 copy 2"><path d="m120 248h16v16h-16z"/><g><g><g fill="#effaff"><path d="m136 320 16 72-8 62-8 8-26.4 2a21.6 21.6 0 0 0 -21.6 21.6v2.4h144v-2.4a21.6 21.6 0 0 0 -21.6-21.6l-26.4-2-8-8-8-62 16-72z"/><path d="m115.962 136h90.677l24.627 127.1c3.092 15.959-3.874 38.208-15.559 49.7l-18.169 17.862c-7.494 7.366-22.158 13.338-32.755 13.338h-6.964c-10.6 0-25.262-5.972-32.755-13.338l-18.17-17.862c-11.685-11.488-18.651-33.737-15.559-49.7z"/><path d="m115.962 136h90.677l24.627 127.1c3.092 15.959-3.874 38.208-15.559 49.7l-18.169 17.862c-7.494 7.366-22.158 13.338-32.755 13.338h-6.964c-10.6 0-25.262-5.972-32.755-13.338l-18.17-17.862c-11.685-11.488-18.651-33.737-15.559-49.7z"/><path d="m115.962 136h90.677l24.627 127.1c3.092 15.959-3.874 38.208-15.559 49.7l-18.169 17.862c-7.494 7.366-22.158 13.338-32.755 13.338h-6.964c-10.6 0-25.262-5.972-32.755-13.338l-18.17-17.862c-11.685-11.488-18.651-33.737-15.559-49.7z"/></g><g><path d="m115.962 136h90.677l24.627 127.1c3.092 15.959-3.874 38.208-15.559 49.7l-18.169 17.862c-7.494 7.366-22.158 13.338-32.755 13.338h-6.964c-10.6 0-25.262-5.972-32.755-13.338l-18.17-17.862c-11.685-11.488-18.651-33.737-15.559-49.7z" fill="#fefefe"/><path d="m164.783 352h-6.964c-12.595 0-29.446-6.867-38.363-15.633l-18.171-17.862c-13.581-13.352-21.4-38.356-17.8-56.922l24.627-127.105a8 8 0 0 1 7.85-6.478h90.677a8 8 0 0 1 7.853 6.478l24.627 127.1c3.6 18.566-4.222 43.57-17.8 56.922l-18.169 17.863c-8.922 8.77-25.774 15.637-38.367 15.637zm-42.222-208-23.373 120.626c-2.588 13.374 3.506 32.826 13.312 42.474l18.171 17.862c5.985 5.878 18.671 11.038 27.148 11.038h6.964c8.476 0 21.161-5.161 27.148-11.043l18.169-17.857c9.807-9.649 15.9-29.1 13.312-42.474l-23.372-120.626z"/></g><g><path d="m115.962 136h90.677l24.627 127.1c3.092 15.959-3.874 38.208-15.559 49.7l-18.169 17.862c-7.494 7.366-22.158 13.338-32.755 13.338h-6.964c-10.6 0-25.262-5.972-32.755-13.338l-18.17-17.862c-11.685-11.488-18.651-33.737-15.559-49.7z" fill="#fefefe"/><path d="m164.783 352h-6.964c-12.595 0-29.446-6.867-38.363-15.633l-18.171-17.862c-13.581-13.352-21.4-38.356-17.8-56.922l24.627-127.105a8 8 0 0 1 7.85-6.478h90.677a8 8 0 0 1 7.853 6.478l24.627 127.1c3.6 18.566-4.222 43.57-17.8 56.922l-18.169 17.863c-8.922 8.77-25.774 15.637-38.367 15.637zm-42.222-208-23.373 120.626c-2.588 13.374 3.506 32.826 13.312 42.474l18.171 17.862c5.985 5.878 18.671 11.038 27.148 11.038h6.964c8.476 0 21.161-5.161 27.148-11.043l18.169-17.857c9.807-9.649 15.9-29.1 13.312-42.474l-23.372-120.626z"/></g><path d="m115.962 136h90.677l24.627 127.1c3.092 15.959-3.874 38.208-15.559 49.7l-18.169 17.862c-7.494 7.366-22.158 13.338-32.755 13.338h-6.964c-10.6 0-25.262-5.972-32.755-13.338l-18.17-17.862c-11.685-11.488-18.651-33.737-15.559-49.7z" fill="#effaff"/></g><path d="m224.227 226.774c-32.233-8.153-66.54-29.514-118.567-37.606l-14.325 73.932c-3.092 15.959 3.874 38.208 15.559 49.7l18.17 17.862c7.493 7.366 22.158 13.338 32.755 13.338h6.964c10.6 0 25.261-5.972 32.755-13.338l18.169-17.862c11.685-11.488 18.651-33.737 15.559-49.7z" fill="#ff5a67"/><path d="m210.727 456-23.166-1.755-3.976-3.976-7.472-57.9 10.054-45.238a55.594 55.594 0 0 0 16.979-10.762l18.169-17.862a59.466 59.466 0 0 0 11.943-17.617q.177-.387.35-.779c.019-.043.039-.086.058-.13 5.435-12.321 7.73-26.648 5.453-38.4l-24.627-127.1a8 8 0 0 0 -7.853-6.481h-90.677a8 8 0 0 0 -7.854 6.478l-10.3 53.163v.006l-14.327 73.936c-.028.145-.055.29-.082.436q-.12.656-.222 1.323c-.022.148-.044.3-.065.445-2.609 18.3 5.123 41.887 18.173 54.718l18.171 17.862q.427.42.88.835a49.673 49.673 0 0 0 8.841 6.34l.312.178q.271.154.544.3.2.109.4.217.373.2.752.4l.478.249q.221.114.444.227l.24.121.6.3.374.181.224.107 10.343 46.537-7.472 57.9-3.976 3.976-23.167 1.765a29.633 29.633 0 0 0 -29.273 29.6v2.4a8 8 0 0 0 8 8h144a8 8 0 0 0 8-8v-2.4a29.633 29.633 0 0 0 -29.273-29.6zm-59.127-104.491.095.014c.29.042.579.083.866.12q.655.084 1.3.15c.208.021.416.04.622.058q.621.054 1.232.088c.2.012.406.022.607.03q.757.031 1.495.031h6.964c1.279 0 2.6-.071 3.957-.207l-8.55 38.472a7.993 7.993 0 0 0 -.19 1.729 7.993 7.993 0 0 0 -.19-1.729l-8.627-38.821zm-29.039-207.509h77.479l13.821 71.333c-5.714-1.935-11.856-4.276-18.92-7.068l-5.882 14.88c9.063 3.582 18.63 7.266 28.261 10.044l5.422 27.978.67 3.459a33.444 33.444 0 0 1 .561 4.927c0 .114.01.228.014.343q.023.687.023 1.385c0 12.56-5.635 27.677-13.911 35.814l-18.169 17.862a26.48 26.48 0 0 1 -3.055 2.544c-6.585 4.75-16.868 8.5-24.092 8.5h-6.964c-8.477 0-21.163-5.16-27.146-11.043l-18.173-17.858c-6.269-6.164-11.021-16.332-12.959-26.36l-.027-.141q-.057-.3-.111-.6c-.026-.145-.051-.29-.076-.434q-.063-.368-.121-.734-.173-1.1-.3-2.191-.042-.363-.078-.726c-.025-.241-.047-.482-.068-.723q-.154-1.8-.171-3.558 0-.35 0-.7a34.83 34.83 0 0 1 .595-6.306l12.837-66.252c23.246 4.342 43.04 11.384 61.059 18.437l5.832-14.9c-18.747-7.337-39.38-14.67-63.847-19.246zm-25.354 336a13.621 13.621 0 0 1 12.393-8c.2 0 .4-.008.6-.023l26.4-2a8 8 0 0 0 5.053-2.32l8-8a8.007 8.007 0 0 0 2.278-4.633l8-62a8.063 8.063 0 0 0 .065-1.017 8.063 8.063 0 0 0 .065 1.017l8 62a8.007 8.007 0 0 0 2.278 4.633l8 8a8 8 0 0 0 5.053 2.32l26.4 2c.2.015.4.023.6.023a13.621 13.621 0 0 1 12.393 8z"/><path d="m176 272h16v16h-16z"/><g><path d="m384 156.652v-122.652a10 10 0 0 0 -10-10h-28a10 10 0 0 0 -10 10v122.652a64.021 64.021 0 0 0 -40 59.348v252a20 20 0 0 0 20 20h88a20 20 0 0 0 20-20v-252a64.021 64.021 0 0 0 -40-59.348z" fill="#54524f"/><path d="m336 72h48v32h-48z" fill="#fafafa"/><path d="m296 232h80v208h-80z" fill="#ff5a67"/><path d="m432 408v-192a71.7 71.7 0 0 0 -40-64.52v-117.48a18.021 18.021 0 0 0 -18-18h-28a18.021 18.021 0 0 0 -18 18v117.48a71.7 71.7 0 0 0 -40 64.52v252a28.032 28.032 0 0 0 28 28h88a28.032 28.032 0 0 0 28-28v-44h-16v44a12.013 12.013 0 0 1 -12 12h-88a12.013 12.013 0 0 1 -12-12v-20h72a8 8 0 0 0 8-8v-168h-16v160h-64v-192h64v16h16v-24a8 8 0 0 0 -8-8h-72v-8a55.791 55.791 0 0 1 35-51.932 8 8 0 0 0 5-7.416v-44.652h32v44.652a8 8 0 0 0 5 7.416 55.791 55.791 0 0 1 35 51.932v192zm-88-374a2 2 0 0 1 2-2h28a2 2 0 0 1 2 2v30h-32zm0 62v-16h32v16z"/></g></g></g></svg>