<svg height="512pt" viewBox="-62 0 512 512" width="512pt" xmlns="http://www.w3.org/2000/svg"><path d="m101.78125 57.96875h23.269531v69.753906c0 38.207032 9.804688 75.777344 28.476563 109.117188 18.667968 33.335937 28.472656 70.90625 28.472656 109.117187v137.089844c0 10.46875-8.484375 18.953125-18.953125 18.953125h-134.089844c-10.46875 0-18.957031-8.484375-18.957031-18.953125v-137.164063c0-38.164062 9.78125-75.6875 28.40625-108.996093l.054688-.09375c18.625-33.308594 28.40625-70.832031 28.40625-108.996094v-69.828125zm0 0" fill="#8282a8"/><path d="m11.59375 320.128906c-1.054688 8.746094-1.59375 17.574219-1.59375 26.4375v101.5625h171.425781v-101.488281c0-8.886719-.542969-17.738281-1.605469-26.511719zm0 0" fill="#fff"/><path d="m125.355469 141.6875c-.199219-4.035156-.304688-8.074219-.304688-12.121094v-71.597656h-58.1875v71.683594c0 4.019531-.101562 8.03125-.296875 12.035156zm0 0" fill="#ff5d5d"/><path d="m101.78125 10h12.628906c5.878906 0 10.640625 4.765625 10.640625 10.640625v37.328125h-58.1875v-37.328125c0-5.875 4.765625-10.640625 10.644531-10.640625zm0 0" fill="#fe8f8d"/><g fill="#ff5d5d"><path d="m96 370.527344c0 12.148437-9.847656 22-22 22-12.148438 0-22-9.851563-22-22 0-12.152344 9.851562-22 22-22 12.152344 0 22 9.847656 22 22zm0 0"/><path d="m140 370.527344c0 12.148437-9.847656 22-22 22-12.148438 0-22-9.851563-22-22 0-12.152344 9.851562-22 22-22 12.152344 0 22 9.847656 22 22zm0 0"/><path d="m118 408.628906c0 12.152344-9.847656 22-22 22-12.148438 0-22-9.847656-22-22 0-12.148437 9.851562-22 22-22 12.152344 0 22 9.851563 22 22zm0 0"/></g><path d="m359.585938 238 16.15625 66.355469c3.359374 13.800781 3.984374 28.128906 1.835937 42.167969-4.6875 30.664062-22.242187 57.863281-48.253906 74.765624l-17.957031 11.667969-17.957032-11.667969c-26.011718-16.902343-43.566406-44.101562-48.253906-74.765624-2.148438-14.039063-1.523438-28.363282 1.835938-42.167969l16.15625-66.355469zm0 0" fill="#c9f3ff"/><path d="m244.277344 339.023438c.207031 2.507812.496094 5.007812.878906 7.5 4.6875 30.664062 22.242188 57.863281 48.253906 74.765624l17.957032 11.667969 17.957031-11.667969c26.011719-16.902343 43.566406-44.101562 48.253906-74.765624.382813-2.492188.671875-4.992188.875-7.5zm0 0" fill="#ff5d5d"/><path d="m135.054688 127.722656v-107.082031c0-11.378906-9.261719-20.640625-20.644532-20.640625h-36.902344c-11.382812 0-20.644531 9.261719-20.644531 20.640625v107.15625c0 36.371094-9.382812 72.375-27.140625 104.132813l-.042968.078124c-19.417969 34.71875-29.679688 74.09375-29.679688 113.875v137.164063c0 15.964844 12.988281 28.953125 28.953125 28.953125h134.09375c15.964844 0 28.953125-12.988281 28.953125-28.953125v-137.089844c0-39.828125-10.285156-79.253906-29.75-114.003906-17.792969-31.773437-27.195312-67.8125-27.195312-104.230469zm-58.191407.074219v-59.828125h38.191407v59.753906c0 1.320313.011718 2.640625.035156 3.964844h-38.257813c.019531-1.296875.03125-2.59375.03125-3.890625zm0-107.15625c0-.351563.289063-.640625.644531-.640625h36.902344c.355469 0 .644532.289062.644532.640625v27.328125h-38.191407zm-29.71875 221.109375.042969-.078125c15.515625-27.742187 25.175781-58.460937 28.4375-89.984375h40.675781c3.269531 31.542969 12.957031 62.28125 28.5 90.039062 11.917969 21.273438 20.046875 44.46875 24.136719 68.402344h-20.304688c-2.882812-15.28125-7.585937-30.15625-14.03125-44.316406-2.285156-5.027344-8.21875-7.246094-13.242187-4.957031-5.027344 2.285156-7.25 8.214843-4.960937 13.242187 5.253906 11.546875 9.207031 23.628906 11.828124 36.03125h-105.171874c4.074218-23.917968 12.191406-47.101562 24.089843-68.378906zm-27.144531 104.132812c0-5.265624.222656-10.519531.609375-15.753906h70.5c-1.742187 3.578125-3.050781 7.351563-3.90625 11.257813-4.027344-1.832031-8.496094-2.859375-13.203125-2.859375-17.644531 0-32 14.355468-32 32 0 14.476562 9.667969 26.730468 22.882812 30.667968-.570312 2.386719-.882812 4.875-.882812 7.4375 0 13.25 8.097656 24.640626 19.601562 29.496094h-63.601562zm76 74.746094c-6.617188 0-12-5.382812-12-12 0-6.617187 5.382812-12 12-12s12 5.382813 12 12c0 6.617188-5.382812 12-12 12zm-22-38.101562c-6.617188 0-12-5.382813-12-12 0-6.617188 5.382812-12 12-12s12 5.382812 12 12c0 6.617187-5.382812 12-12 12zm44 0c-6.617188 0-12-5.382813-12-12 0-6.617188 5.382812-12 12-12s12 5.382812 12 12c0 6.617187-5.382812 12-12 12zm10 26.101562c0-2.558594-.308594-5.046875-.878906-7.433594 13.214844-3.9375 22.878906-16.191406 22.878906-30.667968 0-17.644532-14.355469-32-32-32-3.265625 0-6.417969.492187-9.386719 1.40625 1.527344-3.46875 3.695313-6.664063 6.457031-9.425782l.378907-.378906h55.9375c.394531 5.261719.617187 10.539063.617187 15.828125v92.171875h-63.601562c11.503906-4.855468 19.597656-16.25 19.597656-29.5zm35.046875 83.371094h-134.089844c-4.9375 0-8.957031-4.019531-8.957031-8.953125v-24.917969h152v24.917969c0 4.933594-4.015625 8.953125-8.953125 8.953125zm0 0"/><path d="m334.773438 429.671875c28.371093-18.433594 47.574218-48.1875 52.6875-81.636719 2.355468-15.40625 1.683593-30.898437-2.003907-46.042968l-16.15625-66.355469c-1.089843-4.484375-5.101562-7.636719-9.714843-7.636719h-96.441407c-4.609375 0-8.625 3.152344-9.714843 7.636719l-16.152344 66.355469c-3.6875 15.144531-4.363282 30.636718-2.007813 46.042968 5.117188 33.445313 24.320313 63.203125 52.691407 81.636719l13.40625 8.714844v53.613281h-24.136719c-5.519531 0-10 4.476562-10 10s4.480469 10 10 10h68.269531c5.523438 0 10-4.476562 10-10s-4.476562-10-10-10h-24.132812v-53.613281zm-78.0625-122.949219 14.292968-58.722656h80.726563l14.296875 58.722656c1.789062 7.359375 2.71875 14.816406 2.796875 22.300782h-114.914063c.078125-7.484376 1.007813-14.941407 2.800782-22.300782zm-.964844 42.300782h111.238281c-5.117187 26.171874-20.65625 49.289062-43.109375 63.878906l-12.507812 8.128906-12.511719-8.128906c-22.449219-14.589844-37.992188-37.707032-43.109375-63.878906zm0 0"/><path d="m98.074219 237.460938c1.75 3.503906 5.28125 5.527343 8.949219 5.527343 1.503906 0 3.03125-.339843 4.464843-1.058593 4.839844-2.417969 6.859375-8.230469 4.617188-13.113282-.023438-.054687-.050781-.105468-.074219-.160156-2.375-4.984375-8.34375-7.101562-13.328125-4.726562-4.925781 2.34375-7.054687 8.203124-4.808594 13.152343.054688.128907.121094.257813.179688.378907zm0 0"/></svg>