<svg height="512" viewBox="0 0 58 60" width="512" xmlns="http://www.w3.org/2000/svg"><g id="Page-1" fill="none" fill-rule="evenodd"><g id="048---Wine-Cheers" fill-rule="nonzero" transform="translate(0 -1)"><path id="Shape" d="m27.82 23-.62 6.08c-.213915 2.4749929-1.6668428 4.6732049-3.86 5.84-2.0354072.9553431-4.2953857 1.3291221-6.53 1.08-.7239549-.0611158-1.4425131-.1747482-2.15-.34-.4257849-.0987419-.846319-.2188945-1.26-.36-2.4393652-.7381712-4.5931458-2.2077687-6.17-4.21-1.44834978-2.0207694-1.76865564-4.6397408-.85-6.95l1.86-4.94c1.05376459.6930977 2.2269371 1.1847452 3.46 1.45 5.28 1.24 5.93-1.51 11.19-.27 1.857609.3907135 3.5667673 1.2990289 4.93 2.62z" fill="#802f34"/><path id="Shape" d="m29 11.22v.08l-1.18 11.7c-1.3629078-1.3120373-3.0681543-2.2131838-4.92-2.6-5.26-1.24-5.91 1.51-11.19.27-1.2330629-.2652548-2.40623541-.7569023-3.46-1.45l4.44-11.76c.1534705-.40292855.5789088-.63266522 1-.54l14.64 3.44c.3953904.0971534.6725077.4528562.67.86z" fill="#84b5cb"/><path id="Shape" d="m19 60-18.23-4.32c-.29207451-.0661916-.52868194-.2795597-.62460987-.5632614s-.03736042-.5968772.15460987-.8267386c1.33-1.61 4.54-2.38 8.3-2 .45368295.0709153.88684137-.2149693 1-.66l3.8-16.31c.413681.1411055.8342151.2612581 1.26.36.7074869.1652518 1.4260451.2788842 2.15.34l-3.81 16.43c-.090291.4265663.1491215.8540887.56 1 3.55 1.31 6.08 3.44 6.55 5.47.0959853.3120768.0091566.6516235-.2248576.879313s-.5758119.3051848-.8851424.200687z" fill="#3b97d3"/><path id="Shape" d="m50.77 31.11c-1.5768542 2.0022313-3.7306348 3.4718288-6.17 4.21-.413681.1411055-.8342151.2612581-1.26.36-.7074869.1652518-1.4260451.2788842-2.15.34-2.2383241.236687-4.4984765-.1509655-6.53-1.12-2.1931572-1.1667951-3.646085-3.3650071-3.86-5.84l-.62-6.06c1.3629078-1.3120373 3.0681543-2.2131838 4.92-2.6 5.26-1.24 5.91 1.51 11.19.27 1.2330629-.2652548 2.4062354-.7569023 3.46-1.45l1.86 4.94c.9215318 2.3085876.6050086 4.9274403-.84 6.95z" fill="#cc4b4c"/><path id="Shape" d="m49.75 19.22c-1.0537646.6930977-2.2269371 1.1847452-3.46 1.45-5.29 1.24-5.93-1.51-11.19-.27-1.8518457.3868162-3.5570922 1.2879627-4.92 2.6l-1.18-11.7v-.08c-.0025077-.4071438.2746096-.7628466.67-.86l14.63-3.44c.4210912-.09266522.8465295.13707145 1 .54z" fill="#9fc9d3"/><path id="Shape" d="m40 33.08c-1.3810971.0295128-2.7502453-.2614312-4-.85-1.2795948-.7129446-2.1168859-2.0195693-2.23-3.48-.0279908-.2639182.0500791-.5281387.2170134-.7344619.1669342-.2063232.4090391-.3378245.6729866-.3655381.2654886-.0278903.531108.0515274.7377155.2205699.2066076.1690426.3370505.4136759.3622845.6794301.051116.7801781.4806003 1.4860263 1.15 1.89.9377464.440399 1.9641697.6593693 3 .64.5522847 0 1 .4477153 1 1s-.4477153 1-1 1z" fill="#fff"/><path id="Shape" d="m57.23 55.68-18.23 4.32c-.2767176.0456471-.5584704-.0449031-.7567837-.2432163-.1983132-.1983133-.2888634-.4800661-.2432163-.7567837.47-2 3-4.16 6.55-5.47.4108785-.1459113.650291-.5734337.56-1l-3.92-16.53c.7239549-.0611158 1.4425131-.1747482 2.15-.34.4257849-.0987419.846319-.2188945 1.26-.36l3.84 16.34c.1131586.4450307.546317.7309153 1 .66 3.76-.41 7 .36 8.3 2 .1873368.2353689.2380735.5515157.1337937.8336846s-.3484169.4893407-.6437937.5463154z" fill="#3b97d3"/><path id="Shape" d="m25.49 6.58c-.5722704-.35493759-1.227066-.55482254-1.9-.58-1.0556136.02658929-1.97283-.72077217-2.16-1.76-.068988-.5706195.1108571-1.14333771.4936661-1.5720838.3828091-.42874609.9315742-.6720714 1.5063339-.6679162.1447202.00105974.2888979.01782458.43.05 1.78.26 2.67 1.82 3.12 3.41.1114611.39706172-.0322652.82182421-.3619271 1.06962376-.3296619.24779954-.7776354.26780465-1.1280729.05037624z" fill="#cc4b4c"/><path id="Shape" d="m32.51 6.58c.5722704-.35493759 1.227066-.55482254 1.9-.58 1.0556136.02658929 1.97283-.72077217 2.16-1.76.068988-.5706195-.1108571-1.14333771-.4936661-1.5720838-.3828091-.42874609-.9315742-.6720714-1.5063339-.6679162-.1447202.00105974-.2888979.01782458-.43.05-1.78.26-2.67 1.82-3.12 3.41-.1114611.39706172.0322652.82182421.3619271 1.06962376.3296619.24779954.7776354.26780465 1.1280729.05037624z" fill="#cc4b4c"/><circle id="Oval" cx="25" cy="13" fill="#802f34" r="1"/><circle id="Oval" cx="17" cy="3" fill="#cc4b4c" r="1"/><circle id="Oval" cx="33" cy="13" fill="#cc4b4c" r="1"/><circle id="Oval" cx="36" cy="16" fill="#cc4b4c" r="1"/><g fill="#95a5a5"><path id="Shape" d="m9 5c-.26580298.00153676-.52128117-.10281349-.71-.29l-2-2c-.39212217-.39212217-.39212217-1.02787783 0-1.42s1.02787783-.39212217 1.42 0l2 2c.18931265.1877666.2957983.44336246.2957983.71s-.10648565.5222334-.2957983.71c-.18871883.18718651-.44419702.29153676-.71.29z"/><path id="Shape" d="m7 8h-3c-.55228475 0-1-.44771525-1-1s.44771525-1 1-1h3c.55228475 0 1 .44771525 1 1s-.44771525 1-1 1z"/><path id="Shape" d="m49 5c-.265803.00153676-.5212812-.10281349-.71-.29-.1893127-.1877666-.2957983-.44336246-.2957983-.71s.1064856-.5222334.2957983-.71l2-2c.2536586-.25365859.623374-.35272355.9698781-.25987808.346504.09284548.6171545.36349596.71.71000002.0928455.34650407-.0062195.7162195-.2598781.96987806l-2 2c-.1887188.18718651-.444197.29153676-.71.29z"/><path id="Shape" d="m54 8h-3c-.5522847 0-1-.44771525-1-1s.4477153-1 1-1h3c.5522847 0 1 .44771525 1 1s-.4477153 1-1 1z"/></g><path id="Shape" d="m26.43 31.73c-.6599612 1.3631099-1.7442006 2.4754202-3.09 3.17-2.0334672.9621862-4.2935318 1.3429016-6.53 1.1-.7239549-.0611158-1.4425131-.1747482-2.15-.34-.4257849-.0987419-.846319-.2188945-1.26-.36-2.4393652-.7381712-4.5931458-2.2077687-6.17-4.21-1.44834978-2.0207694-1.76865564-4.6397408-.85-6.95l1.86-4.94c1.05376459.6930977 2.2269371 1.1847452 3.46 1.45.7844553.2057494 1.5894559.3231453 2.4.35-.24 4.88 2.48 9.41 12.33 10.73z" fill="#cc4b4c"/><path id="Shape" d="m19.33 8.24c-2 2.84-5 8-5.23 12.75-.8060625-.0177821-1.607651-.1251078-2.39-.32-1.2330629-.2652548-2.40623541-.7569023-3.46-1.45l4.44-11.76c.1534705-.40292855.5789088-.63266522 1-.54z" fill="#9fc9d3"/><path id="Shape" d="m12 31.83c-.1916116-.0004966-.3790464-.0560328-.54-.16-.8591899-.5287869-1.61763456-1.2059697-2.24-2-.95888944-1.3659392-1.15493619-3.1265898-.52-4.67.20790297-.5100784.78914556-.7559887 1.3-.55.2479987.0941245.4484397.2829256.557215.5248568.1087752.2419312.1169715.517168.022785.7651432-.366695.8828277-.273104 1.8898674.25 2.69.4747573.6184317 1.0533632 1.1496663 1.71 1.57.3626097.2435301.5252018.6942316.4015802 1.1131712-.1236215.4189397-.5048491.7091697-.9415802.7168288z" fill="#fff"/><path id="Shape" d="m49.75 19.22-.14.09c-1.0182963.6446225-2.1421079 1.104979-3.32 1.36-3.92.92-5.29-.36-7.89-.57-1-4.91.2-10.76.45-11.9h.2l5.25-1.28c.4210912-.09266522.8465295.13707145 1 .54z" fill="#84b5cb"/><path id="Shape" d="m52.09 26.14c-9.25 3.11-12.65-1-13.69-6 2.6.21 4 1.49 7.89.57 1.1778921-.255021 2.3017037-.7153775 3.32-1.36l.3.32 1.71 4.53c.2410551.6232603.3990773 1.275522.47 1.94z" fill="#802f34"/></g></g></svg>