<svg height="512pt" viewBox="0 0 512.00002 512" width="512pt" xmlns="http://www.w3.org/2000/svg"><path d="m484.464844 141.75-29.875-11.722656c-47.515625-18.644532-87.714844-50.867188-116.253906-93.1875l39.792968-26.839844c23.074219 34.214844 55.578125 60.269531 93.996094 75.34375l29.875 11.722656zm0 0" fill="#a0e557"/><path d="m166.429688 208.234375s-.855469 8.550781 14.539062 28.21875c96.625-53.507813 25.652344-111.164063 25.652344-111.164063s70.972656-57.65625-25.652344-111.164062c-15.394531 19.667969-14.539062 28.21875-14.539062 28.21875s-22.3125-46.175781-85.550782-28.21875c4.808594 41.351562 29.53125 56.808594 32.976563 58.777344-5.148438-2.773438-58.289063-28.742188-103.855469 52.386718 45.566406 81.128907 98.707031 55.160157 103.855469 52.390626-3.445313 1.964843-28.167969 17.425781-32.976563 58.773437 63.238282 17.957031 85.550782-28.21875 85.550782-28.21875zm0 0" fill="#d8fb93"/><g fill="#a0e557"><path d="m383.765625 214.34375c0 21.789062-17.664063 39.449219-39.449219 39.449219-21.789062 0-39.449218-17.660157-39.449218-39.449219 0-21.785156 17.660156-39.449219 39.449218-39.449219 21.785156 0 39.449219 17.664063 39.449219 39.449219zm0 0"/><path d="m462.664062 214.34375c0 21.789062-17.664062 39.449219-39.449218 39.449219-21.789063 0-39.449219-17.660157-39.449219-39.449219 0-21.785156 17.660156-39.449219 39.449219-39.449219 21.785156 0 39.449218 17.664063 39.449218 39.449219zm0 0"/><path d="m302.710938 214.34375c0 21.789062-17.664063 39.449219-39.449219 39.449219-21.789063 0-39.449219-17.660157-39.449219-39.449219 0-21.785156 17.660156-39.449219 39.449219-39.449219 21.785156 0 39.449219 17.664063 39.449219 39.449219zm0 0"/><path d="m265.308594 257.417969c0 21.789062-17.664063 39.449219-39.449219 39.449219-21.789063 0-39.449219-17.660157-39.449219-39.449219 0-21.785157 17.660156-39.449219 39.449219-39.449219 21.785156 0 39.449219 17.664062 39.449219 39.449219zm0 0"/><path d="m344.203125 257.417969c0 21.789062-17.660156 39.449219-39.445313 39.449219-21.789062 0-39.449218-17.660157-39.449218-39.449219 0-21.785157 17.660156-39.449219 39.449218-39.449219 21.785157 0 39.445313 17.664062 39.445313 39.449219zm0 0"/><path d="m423.101562 257.417969c0 21.789062-17.660156 39.449219-39.449218 39.449219-21.785156 0-39.449219-17.660157-39.449219-39.449219 0-21.785157 17.664063-39.449219 39.449219-39.449219 21.789062 0 39.449218 17.664062 39.449218 39.449219zm0 0"/><path d="m502 257.417969c0 21.789062-17.660156 39.449219-39.449219 39.449219-21.785156 0-39.449219-17.660157-39.449219-39.449219 0-21.785157 17.664063-39.449219 39.449219-39.449219 21.789063 0 39.449219 17.664062 39.449219 39.449219zm0 0"/><path d="m304.757812 325.796875c0 21.785156-17.664062 39.449219-39.449218 39.449219-21.789063 0-39.449219-17.664063-39.449219-39.449219 0-21.789063 17.660156-39.449219 39.449219-39.449219 21.785156 0 39.449218 17.660156 39.449218 39.449219zm0 0"/><path d="m383.652344 325.796875c0 21.785156-17.660156 39.449219-39.449219 39.449219-21.785156 0-39.445313-17.664063-39.445313-39.449219 0-21.789063 17.660157-39.449219 39.445313-39.449219 21.789063 0 39.449219 17.660156 39.449219 39.449219zm0 0"/><path d="m462.550781 325.796875c0 21.785156-17.660156 39.449219-39.449219 39.449219-21.785156 0-39.449218-17.664063-39.449218-39.449219 0-21.789063 17.664062-39.449219 39.449218-39.449219 21.789063 0 39.449219 17.660156 39.449219 39.449219zm0 0"/><path d="m344.203125 394.195312c0 21.785157-17.660156 39.449219-39.445313 39.449219-21.789062 0-39.449218-17.664062-39.449218-39.449219 0-21.789062 17.660156-39.449218 39.449218-39.449218 21.785157 0 39.445313 17.660156 39.445313 39.449218zm0 0"/><path d="m423.101562 394.195312c0 21.785157-17.660156 39.449219-39.449218 39.449219-21.785156 0-39.449219-17.664062-39.449219-39.449219 0-21.789062 17.664063-39.449218 39.449219-39.449218 21.789062 0 39.449218 17.660156 39.449218 39.449218zm0 0"/><path d="m383.652344 462.53125c0 21.785156-17.660156 39.449219-39.449219 39.449219-21.785156 0-39.445313-17.664063-39.445313-39.449219 0-21.789062 17.660157-39.449219 39.445313-39.449219 21.789063 0 39.449219 17.660157 39.449219 39.449219zm0 0"/></g><path d="m512 257.417969c0-23.945313-17.113281-43.96875-39.75-48.488281-2.707031-24.726563-23.710938-44.035157-49.148438-44.035157-16.09375 0-30.414062 7.734375-39.449218 19.675781-6.988282-9.238281-17.144532-15.949218-28.835938-18.515624 2.976563-21.679688 16.722656-40.953126 36.71875-50.589844l7.21875-3.476563c.074219-.035156.140625-.082031.214844-.117187 16.101562 11 33.503906 20.21875 51.96875 27.464844l29.875 11.726562c1.199219.46875 2.433594.691406 3.648438.691406 3.992187 0 7.765624-2.40625 9.3125-6.347656l17.535156-44.683594c.96875-2.472656.917968-5.222656-.144532-7.652344-1.058593-2.433593-3.042968-4.34375-5.511718-5.3125l-29.875-11.722656c-36.523438-14.332031-67.421875-39.097656-89.355469-71.625-1.484375-2.199218-3.78125-3.71875-6.382813-4.226562-2.605468-.503906-5.300781.042968-7.5 1.523437l-39.796874 26.839844c-4.578126 3.089844-5.785157 9.304687-2.699219 13.886719 14.324219 21.234375 31.476562 40.015625 50.9375 55.957031-25.777344 13.21875-43.210938 38.875-46.285157 67.429687-9.394531 1.839844-17.835937 6.347657-24.519531 12.695313-.210937-.664063-.492187-1.320313-.851562-1.953125l-6.136719-10.730469c-2.808594-4.90625-6.011719-9.507812-9.554688-13.785156 9.605469-1.273437 19.746094-5.382813 29.9375-14.777344 14.425782-13.300781 15.511719-35.871093 2.425782-50.320312-11.300782-12.476563-30.648438-13.4375-43.128906-2.132813-4.09375 3.707032-4.402344 10.03125-.695313 14.125s10.03125 4.40625 14.125.699219c4.304687-3.898437 10.976563-3.570313 14.875.734375 5.75 6.347656 5.230469 16.300781-1.15625 22.1875-14.226563 13.117188-26.351563 11.101562-44.570313 6.15625-11.554687-6.382812-24.390624-10.457031-37.785156-11.777344 7.8125-10.847656 15.488282-26.476562 13.867188-44.789062-2.21875-25.066406-20.960938-47.53125-55.714844-66.777344-4.300781-2.378906-9.691406-1.285156-12.71875 2.585938-4.132812 5.28125-7.265625 9.929687-9.628906 13.988281-2.878906-2.882813-6.335938-5.867188-10.417969-8.683594-14.070313-9.699219-38.488281-19.097656-74.898437-8.761719-4.71875 1.34375-7.765626 5.90625-7.203126 10.777344 2.078126 17.871094 7.542969 31.453125 13.738282 41.546875-2.957032.105469-6.054688.402344-9.257813.941406-28.5625 4.808594-53.503906 25.875-74.144531 62.621094-1.707031 3.042969-1.707031 6.753906 0 9.796875 20.640625 36.746094 45.582031 57.8125 74.144531 62.621094 3.207031.539062 6.300781.835937 9.261719.941406-6.199219 10.09375-11.664062 23.675781-13.742188 41.546875-.5625 4.871094 2.484376 9.4375 7.203126 10.773437 11.25 3.195313 21.351562 4.503907 30.355468 4.503907 20.152344 0 34.820313-6.558594 44.542969-13.265625 4.082031-2.816406 7.539063-5.800782 10.417969-8.683594 2.363281 4.058594 5.496094 8.707031 9.628906 13.988281 1.242188 1.585938 2.882812 2.699219 4.679688 3.304688-.882813 3.691406-1.363282 7.539062-1.363282 11.496093 0 25.210938 18.96875 46.0625 43.378906 49.066407-2.527343 5.933593-3.929687 12.464843-3.929687 19.3125 0 25.25 19.027344 46.125 43.492187 49.078125-2.53125 5.9375-3.933593 12.46875-3.933593 19.320312 0 25.203125 18.960937 46.050782 43.363281 49.058594-2.519531 5.929688-3.914062 12.441406-3.914062 19.277344 0 27.265625 22.183593 49.449218 49.449218 49.449218s49.449219-22.183593 49.449219-49.449218c0-6.832032-1.394531-13.347656-3.914063-19.277344 24.402344-3.007812 43.363282-23.855469 43.363282-49.058594 0-6.863281-1.410156-13.402344-3.945313-19.347656 24.363281-3.046875 43.28125-23.871094 43.28125-49.050781 0-6.847657-1.402343-13.375-3.929687-19.3125 24.410156-3 43.378906-23.851563 43.378906-49.0625zm-159.613281-217.992188 23.234375-15.671875c23.734375 31.894532 55.652344 56.304688 92.851562 70.898438l20.566406 8.070312-10.230468 26.066406-20.566406-8.070312c-42.507813-16.679688-78.917969-44.679688-105.855469-81.292969zm70.714843 145.472657c14.449219 0 26.488282 10.457031 28.972657 24.199218-11.75 2.546875-21.953125 9.273438-28.972657 18.546875-7.015624-9.273437-17.222656-16-28.96875-18.546875 2.480469-13.742187 14.523438-24.199218 28.96875-24.199218zm-188.742187 23.816406c2.632813-13.554688 14.589844-23.820313 28.902344-23.820313 14.605469 0 26.757812 10.691407 29.050781 24.660157-10.921875 2.84375-20.382812 9.332031-27.007812 18.085937-7.40625-9.785156-18.367188-16.734375-30.945313-18.925781zm46.472656-40.582032c-5.464843-2.085937-11.382812-3.234374-17.570312-3.234374-7.753907 0-15.09375 1.796874-21.632813 4.992187-.808594-12.695313-5.78125-23.785156-11.371094-32.453125 20.152344 3.199219 38.390626 14.234375 50.574219 30.695312zm63.371094 187.113282c-16.234375 0-29.445313-13.210938-29.445313-29.449219s13.210938-29.449219 29.445313-29.449219c16.238281 0 29.449219 13.210938 29.449219 29.449219s-13.210938 29.449219-29.449219 29.449219zm-39.449219-68.378906c-16.238281 0-29.449218-13.210938-29.449218-29.449219s13.210937-29.445313 29.449218-29.445313c16.238282 0 29.449219 13.207032 29.449219 29.445313s-13.210937 29.449219-29.449219 29.449219zm78.898438 0c-16.238282 0-29.449219-13.210938-29.449219-29.449219s13.210937-29.445313 29.449219-29.445313c16.238281 0 29.449218 13.207032 29.449218 29.445313s-13.210937 29.449219-29.449218 29.449219zm-39.449219-101.96875c14.449219 0 26.488281 10.457031 28.972656 24.199218-11.746093 2.546875-21.953125 9.273438-28.972656 18.546875-7.015625-9.273437-17.222656-16-28.96875-18.546875 2.480469-13.742187 14.523437-24.199218 28.96875-24.199218zm-175.058594 13.710937c-4.667969-1.3125-9.609375.90625-11.71875 5.273437-.042969.09375-4.734375 9.375-15.734375 16.964844-13.386718 9.230469-30 11.933594-49.476562 8.066406 6.289062-30.125 24.386718-41.285156 26.601562-42.550781 4.753906-2.714843 6.441406-8.746093 3.789063-13.53125-2.65625-4.789062-8.664063-6.554687-13.484375-3.960937-4.851563 2.609375-47.632813 23.03125-87.558594-43.582032 39.925781-66.613281 82.707031-46.191406 87.558594-43.582031 4.820312 2.59375 10.832031.828125 13.484375-3.960937 2.652343-4.789063.964843-10.816406-3.792969-13.53125-2.210938-1.265625-20.304688-12.421875-26.59375-42.542969 47.390625-9.300781 64.492188 23.597656 65.207031 25.023437 2.109375 4.367188 7.054688 6.589844 11.71875 5.273438 4.402344-1.242188 7.363281-5.292969 7.285157-9.796875.105468-.738281.992187-5.503906 7.292968-14.867187 23.648438 14.554687 36.378906 30.171874 37.875 46.503906 1.769532 19.363281-12.890625 35.707031-18.839844 41.480468h-12.207031l-25.597656-25.597656c-3.902344-3.902344-10.234375-3.90625-14.140625 0s-3.90625 10.238282 0 14.140625l11.457031 11.457031h-41.394531c-5.523438 0-10 4.476563-10 10 0 5.523438 4.476562 10 10 10h41.394531l-15.371093 15.371094c-3.90625 3.902344-3.90625 10.234375 0 14.140625 1.953124 1.953125 4.511718 2.929688 7.070312 2.929688s5.121094-.976563 7.070312-2.929688l29.511719-29.511719h12.203125c5.96875 5.792969 20.613282 22.128907 18.84375 41.480469-1.496094 16.328125-14.226562 31.949219-37.875 46.503907-6.300781-9.367188-7.1875-14.128907-7.292968-14.871094.078124-4.5-2.882813-8.550782-7.285157-9.792969zm27.265625 58.808594c0-16.238281 13.210938-29.449219 29.449219-29.449219s29.449219 13.210938 29.449219 29.449219-13.210938 29.449219-29.449219 29.449219c-16.242187 0-29.449219-13.210938-29.449219-29.449219zm39.449219 68.378906c0-16.238281 13.207031-29.449219 29.449219-29.449219 16.238281 0 29.449218 13.210938 29.449218 29.449219s-13.210937 29.449219-29.449218 29.449219c-16.242188 0-29.449219-13.210938-29.449219-29.449219zm39.558594 68.398437c0-16.238281 13.210937-29.449218 29.449219-29.449218 16.238281 0 29.449218 13.210937 29.449218 29.449218 0 16.238282-13.210937 29.449219-29.449218 29.449219-16.238282 0-29.449219-13.210937-29.449219-29.449219zm68.898437 97.785157c-16.238281 0-29.449218-13.210938-29.449218-29.449219s13.210937-29.449219 29.449218-29.449219c16.238282 0 29.449219 13.210938 29.449219 29.449219s-13.210937 29.449219-29.449219 29.449219zm39.449219-68.335938c-16.238281 0-29.449219-13.210937-29.449219-29.449219 0-16.238281 13.210938-29.449218 29.449219-29.449218s29.449219 13.210937 29.449219 29.449218c0 16.238282-13.210938 29.449219-29.449219 29.449219zm39.335937-68.398437c-16.238281 0-29.449218-13.210938-29.449218-29.449219s13.210937-29.449219 29.449218-29.449219c16.238282 0 29.449219 13.210938 29.449219 29.449219s-13.210937 29.449219-29.449219 29.449219zm39.449219-68.378906c-16.238281 0-29.449219-13.210938-29.449219-29.449219s13.210938-29.445313 29.449219-29.445313 29.449219 13.207032 29.449219 29.445313-13.210938 29.449219-29.449219 29.449219zm0 0"/><path d="m77.671875 115.289062c-2.640625 0-5.210937 1.070313-7.070313 2.929688-1.871093 1.859375-2.929687 4.441406-2.929687 7.070312 0 2.628907 1.058594 5.210938 2.929687 7.070313 1.859376 1.859375 4.4375 2.929687 7.070313 2.929687 2.628906 0 5.199219-1.070312 7.066406-2.929687 1.863281-1.859375 2.933594-4.441406 2.933594-7.070313 0-2.628906-1.070313-5.210937-2.933594-7.070312-1.859375-1.859375-4.4375-2.929688-7.066406-2.929688zm0 0"/></svg>